<?xml version="1.0" encoding="UTF-8"?>
<svg width="240" height="40" version="1.1" viewBox="0 0 63.5 10.583" xmlns="http://www.w3.org/2000/svg">
<defs>
<clipPath id="a">
<path transform="matrix(.89346 0 0 -.90205 632.34 2313.7)" d="m1486.1 1425.8a1043.8 1033.8 0 1 1-2087.5 0 1043.8 1033.8 0 1 1 2087.5 0z" fill="none" stroke="#fff" stroke-width="103.88"/>
</clipPath>
</defs>
<g transform="translate(0 -286.42)">
<g transform="matrix(.055122 0 0 .055119 8.3613 276.69)">
<g transform="matrix(.70268 0 0 .70268 -37.52 137.87)">
<g transform="matrix(.1465 0 0 -.1465 -150 341.94)" clip-path="url(#a)">
<g fill-rule="evenodd">
<path d="m28.364 2026.8h2e3v-2e3h-2e3z" fill="#f3f4f4"/>
<path d="m478.36 746.75h210v-190h-210z" fill="#e6e6e6"/>
<path d="m1878.4 196.75h150v-170h-150z" fill="#7fc7ed"/>
<path d="m738.36 456.75h260v-209.67h-260z" fill="#e6e6e6"/>
<path d="m1538.4 2026.8h290v-220h-290z" fill="#7fc7ed"/>
<path d="m1168.4 1756.8h660v-810h-660z" fill="#e6e6e6"/>
<path d="m28.364 1756.8h140v-960h-140z" fill="#e6e6e6"/>
<path d="m478.36 196.75h210v-170h-210z" fill="#83cdac"/>
<path d="m1118.4 1506.8h-950v20h950z" fill="#ececec"/>
<path d="m738.36 996.75h-570v20h570z" fill="#ececec"/>
<path d="m918.36 1906.8h-890v20h890z" fill="#ececec"/>
<path d="m478.36 606.75h-450v20h450z" fill="#ececec"/>
<path d="m2028.4 1586.8h-150v20h150z" fill="#ececec"/>
<path d="m2028.4 1016.8h-150v20h150z" fill="#ececec"/>
<path d="m2028.4 766.75h-150v20h150z" fill="#ececec"/>
<path d="m738.36 346.75h-710v20h710z" fill="#ececec"/>
<path d="m1828.4 656.75h-780v20h780z" fill="#ececec"/>
<path d="m898.36 2026.8h20v-910h-20z" fill="#ececec"/>
<path d="m898.36 196.75h20v-170h-20z" fill="#ececec"/>
<path d="m1578.4 676.75h20v-430h-20z" fill="#ececec"/>
<path d="m2028.4 1756.8h-2e3v50h2e3z" fill="#fff"/>
<path d="m738.36 746.75h-710v50h710z" fill="#fff"/>
<path d="m1878.4 896.75h-1147v50h1147z" fill="#fff"/>
<path d="m2028.4 196.75h-2e3v50h2e3z" fill="#fff"/>
<path d="m2028.4 1116.8h-1340v50h1340z" fill="#fff"/>
<path d="m168.36 2026.8h50v-2e3h-50z" fill="#fff"/>
<path d="m1828.4 2026.8h50v-2e3h-50z" fill="#fff"/>
<path d="m688.36 2026.8h50v-2e3h-50z" fill="#fff"/>
<path d="m1118.4 1806.8h50v-910h-50z" fill="#fff"/>
<path d="m998.36 896.75h50v-700h-50z" fill="#fff"/>
<path d="m1488.4 2026.8h50v-910h-50z" fill="#fff"/>
<path d="m378.36 2026.8h100v-2e3h-100z" fill="#ccc"/>
<path d="m1328.4 2026.8h100v-2e3h-100z" fill="#ccc"/>
<path d="m2028.4 1286.8h-2e3v100h2e3z" fill="#ccc"/>
<path d="m2027.4 456.75h-1549v100h1549z" fill="#ccc"/>
</g>
</g>
</g>
<g transform="translate(-905.04 -4.6124)">
<path d="m815.14 266.81c-2.2703 2.423-3.6923 5.9525-3.6371 9.2724 0.11536 6.9376 3.2424 9.5639 8.2433 19.112 1.8014 4.2017 3.6815 8.6476 5.4697 16.011 0.24851 1.0862 0.49087 2.095 0.60298 2.1824 0.11202 0.0875 0.35447-0.92499 0.60297-2.0111 1.7882-7.3634 3.6683-11.806 5.4697-16.007 5.0009-9.5484 8.128-12.175 8.2433-19.112 0.0553-3.3199-1.3703-6.853-3.6406-9.2759-2.5934-2.7678-6.5051-4.8162-10.675-4.9018-4.1703-0.0857-8.0855 1.9627-10.679 4.7306z" fill="#6EC9F2" stroke="#333" stroke-width="1.8044"/>
<circle cx="825.82" cy="276.34" r="5.4774" fill="#f5f5f5" stroke-width="0"/>
</g>
<g transform="translate(-835.97 -56.332)">
<path d="m815.14 266.81c-2.2703 2.423-3.6923 5.9525-3.6371 9.2724 0.11536 6.9376 3.2424 9.5639 8.2433 19.112 1.8014 4.2017 3.6815 8.6476 5.4697 16.011 0.24851 1.0862 0.49087 2.095 0.60298 2.1824 0.11202 0.0875 0.35447-0.92499 0.60297-2.0111 1.7882-7.3634 3.6683-11.806 5.4697-16.007 5.0009-9.5484 8.128-12.175 8.2433-19.112 0.0553-3.3199-1.3703-6.853-3.6406-9.2759-2.5934-2.7678-6.5051-4.8162-10.675-4.9018-4.1703-0.0857-8.0855 1.9627-10.679 4.7306z" fill="#6EC9F2" stroke="#333" stroke-width="1.8044"/>
<circle cx="825.82" cy="276.34" r="5.4774" fill="#f5f5f5" stroke-width="0"/>
</g>
<g transform="translate(-816.17 -40.068)">
<path d="m815.14 266.81c-2.2703 2.423-3.6923 5.9525-3.6371 9.2724 0.11536 6.9376 3.2424 9.5639 8.2433 19.112 1.8014 4.2017 3.6815 8.6476 5.4697 16.011 0.24851 1.0862 0.49087 2.095 0.60298 2.1824 0.11202 0.0875 0.35447-0.92499 0.60297-2.0111 1.7882-7.3634 3.6683-11.806 5.4697-16.007 5.0009-9.5484 8.128-12.175 8.2433-19.112 0.0553-3.3199-1.3703-6.853-3.6406-9.2759-2.5934-2.7678-6.5051-4.8162-10.675-4.9018-4.1703-0.0857-8.0855 1.9627-10.679 4.7306z" fill="#6EC9F2" stroke="#333" stroke-width="1.8044"/>
<circle cx="825.82" cy="276.34" r="5.4774" fill="#f5f5f5" stroke-width="0"/>
</g>
</g>
<path transform="matrix(.26458 0 0 .26458 0 286.42)" d="m107.34 2.8008c-0.90666 0-1.6392 0.25311-2.1992 0.75977-0.53333 0.50666-0.80078 1.1857-0.80078 2.0391 0 0.85334 0.26745 1.5344 0.80078 2.041 0.56 0.50666 1.2926 0.75977 2.1992 0.75977h1.1602c0.93333 0 1.6678-0.25311 2.2012-0.75977 0.56-0.50666 0.83985-1.1877 0.83985-2.041 0-0.85334-0.27985-1.5324-0.83985-2.0391-0.53333-0.50666-1.2535-0.75977-2.1602-0.75977h-1.2012zm110.2 1.4004v29.199h6v-8.6406h2.9219l4.6387 8.6406h6.8008l-6.2402-11.24 6.1191-10.76h-6.6797l-4.5996 8.3203h-2.9609v-15.52h-6zm-169.4 0.39844v5.6016h7.5996v23.199h6v-23.199h7.5996v-5.6016h-21.199zm97.119 0v28.801h9.8808c1.52 0 2.8925-0.18721 4.1192-0.56055 1.2533-0.4 2.3068-0.95969 3.1602-1.6797 0.88-0.74666 1.5467-1.6273 2-2.6406 0.48-1.04 0.7207-2.1985 0.7207-3.4785 0-1.8667-0.54729-3.3748-1.6406-4.5215-1.0933-1.1467-2.5995-1.7866-4.5195-1.9199v-0.43945c1.76-0.16 3.1325-0.78556 4.1191-1.8789 1.0133-1.0933 1.5215-2.5337 1.5215-4.3203 0-1.12-0.2283-2.1344-0.68164-3.041-0.45333-0.90668-1.1056-1.6803-1.959-2.3203-0.82667-0.64-1.841-1.1319-3.041-1.4785-1.2-0.34666-2.5457-0.52148-4.0391-0.52148h-9.6406zm5.8008 4.8008h3.7598c1.1733 0 2.0931 0.30661 2.7598 0.91992 0.66667 0.58668 1 1.3871 1 2.4004 0 1.0133-0.34573 1.8261-1.0391 2.4395-0.66667 0.61332-1.574 0.91992-2.7207 0.91992h-3.7598v-6.6797zm-64.961 1.5996c-1.7067 0-3.0791 0.36008-4.1191 1.0801-1.04 0.72-1.6675 1.7611-1.8809 3.1211h-0.39844v-3.8008h-5.6816v22h6v-13.6c0-1.1733 0.30659-2.0931 0.91992-2.7598 0.61333-0.69332 1.4548-1.041 2.5215-1.041 1.2 0 2.1465 0.33334 2.8398 1 0.69333 0.66666 1.0391 1.6008 1.0391 2.8008v1.4004h6.4004v-1.8008c0-2.64-0.66667-4.6935-2-6.1602-1.3333-1.4933-3.214-2.2402-5.6406-2.2402zm47.041 0c-1.5733 0-2.8675 0.37444-3.8808 1.1211-0.98666 0.74668-1.5855 1.7734-1.7988 3.0801h-0.40039v-3.8008h-5.8008v28.6h6v-6.5996c0-0.85334-0.02674-1.6537-0.08008-2.4004-0.05334-0.74658-0.09248-1.226-0.11914-1.4395h0.40039c0.21333 1.3333 0.81216 2.3725 1.7988 3.1191 1.0133 0.74666 2.3075 1.1211 3.8808 1.1211 1.1733 0 2.2268-0.19961 3.1602-0.59961 0.93334-0.42666 1.7337-1.015 2.4004-1.7617 0.69334-0.77332 1.2119-1.6931 1.5586-2.7598 0.37333-1.0933 0.56054-2.3197 0.56054-3.6797v-5.4004c0-1.3067-0.18721-2.4919-0.56054-3.5586-0.34667-1.0667-0.86526-1.974-1.5586-2.7207-0.66666-0.74666-1.467-1.3207-2.4004-1.7207-0.93333-0.4-1.9868-0.59961-3.1602-0.59961zm45.6 0c-1.52 0-2.9068 0.21397-4.1602 0.64062-1.2267 0.42668-2.2802 1.0255-3.1602 1.7988-0.88 0.77334-1.5591 1.7074-2.0391 2.8008-0.48 1.0667-0.7207 2.2395-0.7207 3.5195v5.2402c0 1.28 0.2407 2.4672 0.7207 3.5605 0.48 1.0667 1.1591 2.0008 2.0391 2.8008 0.88 0.77332 1.9335 1.3721 3.1602 1.7988 1.2533 0.42666 2.6402 0.64062 4.1602 0.64062s2.8925-0.21397 4.1192-0.64062c1.2533-0.42668 2.3212-1.0255 3.2012-1.7988 0.88-0.8 1.5591-1.7341 2.0391-2.8008 0.48-1.0933 0.7207-2.2805 0.7207-3.5605v-5.2402c0-1.28-0.2407-2.4529-0.7207-3.5195-0.48-1.0933-1.1591-2.0274-2.0391-2.8008-0.88-0.77332-1.9478-1.3721-3.2012-1.7988-1.2267-0.42666-2.5992-0.64062-4.1192-0.64062zm24 0c-1.52 0-2.9068 0.21397-4.1602 0.64062-1.2267 0.42668-2.2802 1.0255-3.1602 1.7988-0.88 0.77334-1.5591 1.7074-2.0391 2.8008-0.48 1.0667-0.7207 2.2395-0.7207 3.5195v5.2402c0 1.28 0.2407 2.4672 0.7207 3.5605 0.48 1.0667 1.1591 2.0008 2.0391 2.8008 0.88 0.77332 1.9335 1.3721 3.1602 1.7988 1.2533 0.42666 2.6402 0.64062 4.1602 0.64062s2.8925-0.21397 4.1192-0.64062c1.2533-0.42668 2.3212-1.0255 3.2012-1.7988 0.88-0.8 1.5591-1.7341 2.0391-2.8008 0.48-1.0933 0.7207-2.2805 0.7207-3.5605v-5.2402c0-1.28-0.2407-2.4529-0.7207-3.5195-0.48-1.0933-1.1591-2.0274-2.0391-2.8008-0.88-0.77332-1.9478-1.3721-3.2012-1.7988-1.2267-0.42666-2.5992-0.64062-4.1192-0.64062zm-104 0.40039v5.4004h6.8008v11.16h-7.8008v5.4395h19.6v-5.4395h-6.1992v-16.561h-12.4zm32.32 4.8008c1.1467 0 2.0521 0.31898 2.7188 0.95898 0.69333 0.64 1.041 1.5206 1.041 2.6406v5c0 1.12-0.33333 2.0254-1 2.7188-0.64 0.69332-1.5598 1.041-2.7598 1.041s-2.1341-0.33334-2.8008-1c-0.66667-0.66666-1-1.5205-1-2.5605v-5.1992c0-1.0933 0.34768-1.9596 1.041-2.5996 0.69334-0.66668 1.6131-1 2.7598-1zm47.68 0c1.2533 0 2.239 0.31898 2.959 0.95898 0.74666 0.64 1.1211 1.5063 1.1211 2.5996v5.2402c0 1.0933-0.37443 1.9596-1.1211 2.5996-0.72 0.64-1.7056 0.96094-2.959 0.96094-1.2533 0-2.2533-0.32094-3-0.96094-0.72-0.64-1.0801-1.5063-1.0801-2.5996v-5.2402c0-1.0933 0.36007-1.9596 1.0801-2.5996 0.74667-0.64 1.7467-0.95898 3-0.95898zm24 0c1.2533 0 2.239 0.31898 2.959 0.95898 0.74666 0.64 1.1211 1.5063 1.1211 2.5996v5.2402c0 1.0933-0.37443 1.9596-1.1211 2.5996-0.72 0.64-1.7056 0.96094-2.959 0.96094-1.2533 0-2.2533-0.32094-3-0.96094-0.72-0.64-1.0801-1.5063-1.0801-2.5996v-5.2402c0-1.0933 0.36007-1.9596 1.0801-2.5996 0.74667-0.64 1.7467-0.95898 3-0.95898zm-51.68 4.6797h3.8398c1.3333 0 2.3601 0.34572 3.0801 1.0391 0.74666 0.66666 1.1191 1.6132 1.1191 2.8398 0 1.2267-0.37248 2.1732-1.1191 2.8398-0.72 0.66668-1.7468 1-3.0801 1h-3.8398v-7.7188z"/>
</g>
</svg>
